<?xml version="1.0" encoding="UTF-8" standalone="no"?>
<!DOCTYPE svg PUBLIC "-//W3C//DTD SVG 1.1//EN"
 "http://www.w3.org/Graphics/SVG/1.1/DTD/svg11.dtd">
<!-- Generated by graphviz version 2.47.0 (20210316.0004)
 -->
<!-- Title: dependencies Pages: 1 -->
<svg width="504pt" height="211pt"
 viewBox="0.00 0.00 504.00 211.00" xmlns="http://www.w3.org/2000/svg" xmlns:xlink="http://www.w3.org/1999/xlink">
<g id="graph0" class="graph" transform="scale(1 1) rotate(0) translate(4 207)">
<title>dependencies</title>
<polygon fill="white" stroke="transparent" points="-4,4 -4,-207 500,-207 500,4 -4,4"/>
<text text-anchor="start" x="227.01" y="-42.4" font-family="Times-12" font-weight="bold" font-size="14.00">Legend</text>
<polygon fill="#ffffb3" stroke="transparent" points="14,-10 14,-30 34,-30 34,-10 14,-10"/>
<text text-anchor="start" x="37.63" y="-15.4" font-family="Times-12" font-size="14.00"> &#160;Declarations</text>
<polygon fill="#8dd3c7" stroke="transparent" points="127,-10 127,-30 147,-30 147,-10 127,-10"/>
<text text-anchor="start" x="150.73" y="-15.4" font-family="Times-12" font-size="14.00"> &#160;Module</text>
<polygon fill="#80b1d3" stroke="transparent" points="213,-10 213,-30 233,-30 233,-10 213,-10"/>
<text text-anchor="start" x="236.78" y="-15.4" font-family="Times-12" font-size="14.00"> &#160;Bootstrap</text>
<polygon fill="#fdb462" stroke="transparent" points="310,-10 310,-30 330,-30 330,-10 310,-10"/>
<text text-anchor="start" x="333.67" y="-15.4" font-family="Times-12" font-size="14.00"> &#160;Providers</text>
<polygon fill="#fb8072" stroke="transparent" points="406,-10 406,-30 426,-30 426,-10 406,-10"/>
<text text-anchor="start" x="429.73" y="-15.4" font-family="Times-12" font-size="14.00"> &#160;Exports</text>
<g id="clust1" class="cluster">
<title>cluster_InfrastructureModule</title>
<polygon fill="none" stroke="black" stroke-dasharray="1,5" points="124,-70 124,-195 372,-195 372,-70 124,-70"/>
</g>
<g id="clust3" class="cluster">
<title>cluster_InfrastructureModule_imports</title>
<polygon fill="none" stroke="black" points="132,-78 132,-130 364,-130 364,-78 132,-78"/>
</g>
<!-- LoggerModule -->
<g id="node1" class="node">
<title>LoggerModule</title>
<polygon fill="#8dd3c7" stroke="black" points="355.98,-122 352.98,-126 331.98,-126 328.98,-122 256.02,-122 256.02,-86 355.98,-86 355.98,-122"/>
<text text-anchor="middle" x="306" y="-99.8" font-family="Times,serif" font-size="14.00">LoggerModule</text>
</g>
<!-- InfrastructureModule -->
<g id="node3" class="node">
<title>InfrastructureModule</title>
<polygon fill="#8dd3c7" stroke="black" points="315.72,-187 312.72,-191 291.72,-191 288.72,-187 180.28,-187 180.28,-151 315.72,-151 315.72,-187"/>
<text text-anchor="middle" x="248" y="-164.8" font-family="Times,serif" font-size="14.00">InfrastructureModule</text>
</g>
<!-- LoggerModule&#45;&gt;InfrastructureModule -->
<g id="edge1" class="edge">
<title>LoggerModule&#45;&gt;InfrastructureModule</title>
<path fill="none" stroke="black" d="M285.94,-122.11C285.94,-122.11 285.94,-140.99 285.94,-140.99"/>
<polygon fill="black" stroke="black" points="282.44,-140.99 285.94,-150.99 289.44,-140.99 282.44,-140.99"/>
</g>
<!-- PrismaModule -->
<g id="node2" class="node">
<title>PrismaModule</title>
<polygon fill="#8dd3c7" stroke="black" points="238.43,-122 235.43,-126 214.43,-126 211.43,-122 139.57,-122 139.57,-86 238.43,-86 238.43,-122"/>
<text text-anchor="middle" x="189" y="-99.8" font-family="Times,serif" font-size="14.00">PrismaModule</text>
</g>
<!-- PrismaModule&#45;&gt;InfrastructureModule -->
<g id="edge2" class="edge">
<title>PrismaModule&#45;&gt;InfrastructureModule</title>
<path fill="none" stroke="black" d="M209.18,-122.11C209.18,-122.11 209.18,-140.99 209.18,-140.99"/>
<polygon fill="black" stroke="black" points="205.68,-140.99 209.18,-150.99 212.68,-140.99 205.68,-140.99"/>
</g>
</g>
</svg>
