<?xml version="1.0" encoding="UTF-8" standalone="no"?>
<!DOCTYPE svg PUBLIC "-//W3C//DTD SVG 1.1//EN"
 "http://www.w3.org/Graphics/SVG/1.1/DTD/svg11.dtd">
<!-- Generated by graphviz version 2.47.0 (20210316.0004)
 -->
<!-- Title: dependencies Pages: 1 -->
<svg width="1138pt" height="287pt"
 viewBox="0.00 0.00 1138.00 287.00" xmlns="http://www.w3.org/2000/svg" xmlns:xlink="http://www.w3.org/1999/xlink">
<g id="graph0" class="graph" transform="scale(1 1) rotate(0) translate(4 283)">
<title>dependencies</title>
<polygon fill="white" stroke="transparent" points="-4,4 -4,-283 1134,-283 1134,4 -4,4"/>
<text text-anchor="start" x="544.01" y="-42.4" font-family="Times-12" font-weight="bold" font-size="14.00">Legend</text>
<polygon fill="#ffffb3" stroke="transparent" points="331,-10 331,-30 351,-30 351,-10 331,-10"/>
<text text-anchor="start" x="354.63" y="-15.4" font-family="Times-12" font-size="14.00"> &#160;Declarations</text>
<polygon fill="#8dd3c7" stroke="transparent" points="444,-10 444,-30 464,-30 464,-10 444,-10"/>
<text text-anchor="start" x="467.73" y="-15.4" font-family="Times-12" font-size="14.00"> &#160;Module</text>
<polygon fill="#80b1d3" stroke="transparent" points="530,-10 530,-30 550,-30 550,-10 530,-10"/>
<text text-anchor="start" x="553.78" y="-15.4" font-family="Times-12" font-size="14.00"> &#160;Bootstrap</text>
<polygon fill="#fdb462" stroke="transparent" points="627,-10 627,-30 647,-30 647,-10 627,-10"/>
<text text-anchor="start" x="650.67" y="-15.4" font-family="Times-12" font-size="14.00"> &#160;Providers</text>
<polygon fill="#fb8072" stroke="transparent" points="723,-10 723,-30 743,-30 743,-10 723,-10"/>
<text text-anchor="start" x="746.73" y="-15.4" font-family="Times-12" font-size="14.00"> &#160;Exports</text>
<g id="clust1" class="cluster">
<title>cluster_AppModule</title>
<polygon fill="none" stroke="black" stroke-dasharray="1,5" points="8,-146 8,-271 418,-271 418,-146 8,-146"/>
</g>
<g id="clust3" class="cluster">
<title>cluster_AppModule_imports</title>
<polygon fill="none" stroke="black" points="154,-154 154,-206 410,-206 410,-154 154,-154"/>
</g>
<g id="clust6" class="cluster">
<title>cluster_AppModule_providers</title>
<polygon fill="none" stroke="black" points="16,-154 16,-206 146,-206 146,-154 16,-154"/>
</g>
<g id="clust7" class="cluster">
<title>cluster_InfrastructureModule</title>
<polygon fill="none" stroke="black" stroke-dasharray="1,5" points="380,-70 380,-138 628,-138 628,-70 380,-70"/>
</g>
<g id="clust9" class="cluster">
<title>cluster_InfrastructureModule_imports</title>
<polygon fill="none" stroke="black" points="388,-78 388,-130 620,-130 620,-78 388,-78"/>
</g>
<g id="clust13" class="cluster">
<title>cluster_LoggerModule</title>
<polygon fill="none" stroke="black" stroke-dasharray="1,5" points="426,-146 426,-214 824,-214 824,-146 426,-146"/>
</g>
<g id="clust16" class="cluster">
<title>cluster_LoggerModule_exports</title>
<polygon fill="none" stroke="black" points="654,-154 654,-206 816,-206 816,-154 654,-154"/>
</g>
<g id="clust18" class="cluster">
<title>cluster_LoggerModule_providers</title>
<polygon fill="none" stroke="black" points="434,-154 434,-206 646,-206 646,-154 434,-154"/>
</g>
<g id="clust19" class="cluster">
<title>cluster_PrismaModule</title>
<polygon fill="none" stroke="black" stroke-dasharray="1,5" points="832,-146 832,-214 1122,-214 1122,-146 832,-146"/>
</g>
<g id="clust22" class="cluster">
<title>cluster_PrismaModule_exports</title>
<polygon fill="none" stroke="black" points="998,-154 998,-206 1114,-206 1114,-154 998,-154"/>
</g>
<g id="clust24" class="cluster">
<title>cluster_PrismaModule_providers</title>
<polygon fill="none" stroke="black" points="840,-154 840,-206 990,-206 990,-154 840,-154"/>
</g>
<g id="clust25" class="cluster">
<title>cluster_UserModule</title>
<polygon fill="none" stroke="black" stroke-dasharray="1,5" points="131,-70 131,-138 279,-138 279,-70 131,-70"/>
</g>
<g id="clust30" class="cluster">
<title>cluster_UserModule_providers</title>
<polygon fill="none" stroke="black" points="139,-78 139,-130 271,-130 271,-78 139,-78"/>
</g>
<!-- InfrastructureModule -->
<g id="node1" class="node">
<title>InfrastructureModule</title>
<polygon fill="#8dd3c7" stroke="black" points="401.72,-198 398.72,-202 377.72,-202 374.72,-198 266.28,-198 266.28,-162 401.72,-162 401.72,-198"/>
<text text-anchor="middle" x="334" y="-175.8" font-family="Times,serif" font-size="14.00">InfrastructureModule</text>
</g>
<!-- AppModule -->
<g id="node3" class="node">
<title>AppModule</title>
<polygon fill="#8dd3c7" stroke="black" points="246.66,-263 243.66,-267 222.66,-267 219.66,-263 163.34,-263 163.34,-227 246.66,-227 246.66,-263"/>
<text text-anchor="middle" x="205" y="-240.8" font-family="Times,serif" font-size="14.00">AppModule</text>
</g>
<!-- InfrastructureModule&#45;&gt;AppModule -->
<g id="edge1" class="edge">
<title>InfrastructureModule&#45;&gt;AppModule</title>
<path fill="none" stroke="black" d="M334,-198.11C334,-217.34 334,-245 334,-245 334,-245 256.88,-245 256.88,-245"/>
<polygon fill="black" stroke="black" points="256.88,-241.5 246.88,-245 256.88,-248.5 256.88,-241.5"/>
</g>
<!-- UserModule -->
<g id="node2" class="node">
<title>UserModule</title>
<polygon fill="#8dd3c7" stroke="black" points="247.98,-198 244.98,-202 223.98,-202 220.98,-198 162.02,-198 162.02,-162 247.98,-162 247.98,-198"/>
<text text-anchor="middle" x="205" y="-175.8" font-family="Times,serif" font-size="14.00">UserModule</text>
</g>
<!-- UserModule&#45;&gt;AppModule -->
<g id="edge2" class="edge">
<title>UserModule&#45;&gt;AppModule</title>
<path fill="none" stroke="black" d="M205,-198.11C205,-198.11 205,-216.99 205,-216.99"/>
<polygon fill="black" stroke="black" points="201.5,-216.99 205,-226.99 208.5,-216.99 201.5,-216.99"/>
</g>
<!-- AppService -->
<g id="node4" class="node">
<title>AppService</title>
<ellipse fill="#fdb462" stroke="black" cx="81" cy="-180" rx="56.74" ry="18"/>
<text text-anchor="middle" x="81" y="-175.8" font-family="Times,serif" font-size="14.00">AppService</text>
</g>
<!-- AppService&#45;&gt;AppModule -->
<g id="edge3" class="edge">
<title>AppService&#45;&gt;AppModule</title>
<path fill="none" stroke="black" d="M81,-198.11C81,-217.34 81,-245 81,-245 81,-245 153.02,-245 153.02,-245"/>
<polygon fill="black" stroke="black" points="153.02,-248.5 163.02,-245 153.02,-241.5 153.02,-248.5"/>
</g>
<!-- LoggerModule -->
<g id="node5" class="node">
<title>LoggerModule</title>
<polygon fill="#8dd3c7" stroke="black" points="495.98,-122 492.98,-126 471.98,-126 468.98,-122 396.02,-122 396.02,-86 495.98,-86 495.98,-122"/>
<text text-anchor="middle" x="446" y="-99.8" font-family="Times,serif" font-size="14.00">LoggerModule</text>
</g>
<!-- LoggerModule&#45;&gt;InfrastructureModule -->
<g id="edge4" class="edge">
<title>LoggerModule&#45;&gt;InfrastructureModule</title>
<path fill="none" stroke="black" d="M428.67,-122.01C428.67,-144.49 428.67,-180 428.67,-180 428.67,-180 411.79,-180 411.79,-180"/>
<polygon fill="black" stroke="black" points="411.79,-176.5 401.79,-180 411.79,-183.5 411.79,-176.5"/>
</g>
<!-- LoggerModule&#45;&gt;UserModule -->
<g id="edge10" class="edge">
<title>LoggerModule&#45;&gt;UserModule</title>
<path fill="none" stroke="black" d="M415.27,-122.19C415.27,-130.28 415.27,-138 415.27,-138 415.27,-138 205,-138 205,-138 205,-138 205,-151.94 205,-151.94"/>
<polygon fill="black" stroke="black" points="201.5,-151.94 205,-161.94 208.5,-151.94 201.5,-151.94"/>
</g>
<!-- CustomLoggerService  -->
<g id="node7" class="node">
<title>CustomLoggerService </title>
<polygon fill="#fb8072" stroke="black" points="807.97,-198 662.03,-198 662.03,-162 807.97,-162 807.97,-198"/>
<text text-anchor="middle" x="735" y="-175.8" font-family="Times,serif" font-size="14.00">CustomLoggerService </text>
</g>
<!-- LoggerModule&#45;&gt;CustomLoggerService  -->
<g id="edge6" class="edge">
<title>LoggerModule&#45;&gt;CustomLoggerService </title>
<path fill="none" stroke="black" stroke-dasharray="5,2" d="M478.02,-122.06C478.02,-126.49 478.02,-130 478.02,-130 478.02,-130 735,-130 735,-130 735,-130 735,-151.95 735,-151.95"/>
<polygon fill="black" stroke="black" points="731.5,-151.95 735,-161.95 738.5,-151.95 731.5,-151.95"/>
</g>
<!-- PrismaModule -->
<g id="node6" class="node">
<title>PrismaModule</title>
<polygon fill="#8dd3c7" stroke="black" points="612.43,-122 609.43,-126 588.43,-126 585.43,-122 513.57,-122 513.57,-86 612.43,-86 612.43,-122"/>
<text text-anchor="middle" x="563" y="-99.8" font-family="Times,serif" font-size="14.00">PrismaModule</text>
</g>
<!-- PrismaModule&#45;&gt;InfrastructureModule -->
<g id="edge5" class="edge">
<title>PrismaModule&#45;&gt;InfrastructureModule</title>
<path fill="none" stroke="black" d="M579.41,-122.05C579.41,-136.37 579.41,-154 579.41,-154 579.41,-154 331.08,-154 331.08,-154 331.08,-154 331.08,-154.79 331.08,-154.79"/>
<polygon fill="black" stroke="black" points="327.58,-151.94 331.08,-161.94 334.58,-151.94 327.58,-151.94"/>
</g>
<!-- PrismaModule&#45;&gt;UserModule -->
<g id="edge11" class="edge">
<title>PrismaModule&#45;&gt;UserModule</title>
<path fill="none" stroke="black" d="M546.59,-122.06C546.59,-133.44 546.59,-146 546.59,-146 546.59,-146 226.49,-146 226.49,-146 226.49,-146 226.49,-151.81 226.49,-151.81"/>
<polygon fill="black" stroke="black" points="222.99,-151.81 226.49,-161.81 229.99,-151.81 222.99,-151.81"/>
</g>
<!-- PrismaService  -->
<g id="node9" class="node">
<title>PrismaService </title>
<polygon fill="#fb8072" stroke="black" points="1106.36,-198 1005.64,-198 1005.64,-162 1106.36,-162 1106.36,-198"/>
<text text-anchor="middle" x="1056" y="-175.8" font-family="Times,serif" font-size="14.00">PrismaService </text>
</g>
<!-- PrismaModule&#45;&gt;PrismaService  -->
<g id="edge8" class="edge">
<title>PrismaModule&#45;&gt;PrismaService </title>
<path fill="none" stroke="black" stroke-dasharray="5,2" d="M612.53,-98C737.55,-98 1056,-98 1056,-98 1056,-98 1056,-151.8 1056,-151.8"/>
<polygon fill="black" stroke="black" points="1052.5,-151.8 1056,-161.8 1059.5,-151.8 1052.5,-151.8"/>
</g>
<!-- CustomLoggerService -->
<g id="node8" class="node">
<title>CustomLoggerService</title>
<ellipse fill="#fdb462" stroke="black" cx="540" cy="-180" rx="97.85" ry="18"/>
<text text-anchor="middle" x="540" y="-175.8" font-family="Times,serif" font-size="14.00">CustomLoggerService</text>
</g>
<!-- CustomLoggerService&#45;&gt;LoggerModule -->
<g id="edge7" class="edge">
<title>CustomLoggerService&#45;&gt;LoggerModule</title>
<path fill="none" stroke="black" d="M460.05,-169.43C460.05,-169.43 460.05,-132.07 460.05,-132.07"/>
<polygon fill="black" stroke="black" points="463.55,-132.07 460.05,-122.07 456.55,-132.07 463.55,-132.07"/>
</g>
<!-- PrismaService -->
<g id="node10" class="node">
<title>PrismaService</title>
<ellipse fill="#fdb462" stroke="black" cx="915" cy="-180" rx="66.63" ry="18"/>
<text text-anchor="middle" x="915" y="-175.8" font-family="Times,serif" font-size="14.00">PrismaService</text>
</g>
<!-- PrismaService&#45;&gt;PrismaModule -->
<g id="edge9" class="edge">
<title>PrismaService&#45;&gt;PrismaModule</title>
<path fill="none" stroke="black" d="M915,-161.97C915,-141.23 915,-110 915,-110 915,-110 622.31,-110 622.31,-110"/>
<polygon fill="black" stroke="black" points="622.31,-106.5 612.31,-110 622.31,-113.5 622.31,-106.5"/>
</g>
<!-- UserService -->
<g id="node11" class="node">
<title>UserService</title>
<ellipse fill="#fdb462" stroke="black" cx="205" cy="-104" rx="58.44" ry="18"/>
<text text-anchor="middle" x="205" y="-99.8" font-family="Times,serif" font-size="14.00">UserService</text>
</g>
<!-- UserService&#45;&gt;UserModule -->
<g id="edge12" class="edge">
<title>UserService&#45;&gt;UserModule</title>
<path fill="none" stroke="black" d="M183.51,-120.87C183.51,-120.87 183.51,-151.85 183.51,-151.85"/>
<polygon fill="black" stroke="black" points="180.01,-151.85 183.51,-161.85 187.01,-151.85 180.01,-151.85"/>
</g>
</g>
</svg>
